<mxfile host="app.diagrams.net" modified="2020-12-07T14:43:57.321Z" agent="5.0 (Windows NT 10.0; Win64; x64) AppleWebKit/537.36 (KHTML, like Gecko) Chrome/86.0.4240.185 YaBrowser/20.11.2.78 Yowser/2.5 Safari/537.36" etag="eJVQeQVuhxQ9TM6rCtvK" version="13.10.9" type="github">
  <diagram id="9umLnRDaOeLDURVIAsYT" name="Страница 1">
    <mxGraphModel dx="705" dy="304" grid="1" gridSize="10" guides="1" tooltips="1" connect="1" arrows="1" fold="1" page="1" pageScale="1" pageWidth="827" pageHeight="1169" math="0" shadow="0">
      <root>
        <mxCell id="0" />
        <mxCell id="1" parent="0" />
        <mxCell id="K1xCmPWtskgmcuf9Q6x5-17" style="edgeStyle=orthogonalEdgeStyle;rounded=0;orthogonalLoop=1;jettySize=auto;html=1;entryX=0.5;entryY=0;entryDx=0;entryDy=0;" edge="1" parent="1" source="K1xCmPWtskgmcuf9Q6x5-1" target="K1xCmPWtskgmcuf9Q6x5-15">
          <mxGeometry relative="1" as="geometry" />
        </mxCell>
        <mxCell id="K1xCmPWtskgmcuf9Q6x5-1" value="&lt;b&gt;Начало&lt;/b&gt;" style="ellipse;whiteSpace=wrap;html=1;" vertex="1" parent="1">
          <mxGeometry x="110" y="20" width="90" height="40" as="geometry" />
        </mxCell>
        <mxCell id="K1xCmPWtskgmcuf9Q6x5-2" value="&lt;b&gt;Конец&lt;/b&gt;" style="ellipse;whiteSpace=wrap;html=1;" vertex="1" parent="1">
          <mxGeometry x="1002.5" y="240" width="90" height="40" as="geometry" />
        </mxCell>
        <mxCell id="K1xCmPWtskgmcuf9Q6x5-6" style="edgeStyle=orthogonalEdgeStyle;rounded=0;orthogonalLoop=1;jettySize=auto;html=1;entryX=0.5;entryY=0;entryDx=0;entryDy=0;" edge="1" parent="1" source="K1xCmPWtskgmcuf9Q6x5-3" target="K1xCmPWtskgmcuf9Q6x5-4">
          <mxGeometry relative="1" as="geometry" />
        </mxCell>
        <mxCell id="K1xCmPWtskgmcuf9Q6x5-3" value="&quot;Введите размерность матрицы:&quot;" style="shape=parallelogram;perimeter=parallelogramPerimeter;whiteSpace=wrap;html=1;fixedSize=1;fontStyle=1" vertex="1" parent="1">
          <mxGeometry x="95" y="180" width="120" height="60" as="geometry" />
        </mxCell>
        <mxCell id="K1xCmPWtskgmcuf9Q6x5-8" style="edgeStyle=orthogonalEdgeStyle;rounded=0;orthogonalLoop=1;jettySize=auto;html=1;entryX=0.5;entryY=0;entryDx=0;entryDy=0;" edge="1" parent="1" source="K1xCmPWtskgmcuf9Q6x5-4" target="K1xCmPWtskgmcuf9Q6x5-7">
          <mxGeometry relative="1" as="geometry" />
        </mxCell>
        <mxCell id="K1xCmPWtskgmcuf9Q6x5-4" value="Ввод n" style="shape=parallelogram;perimeter=parallelogramPerimeter;whiteSpace=wrap;html=1;fixedSize=1;fontStyle=1" vertex="1" parent="1">
          <mxGeometry x="95" y="270" width="120" height="60" as="geometry" />
        </mxCell>
        <mxCell id="K1xCmPWtskgmcuf9Q6x5-11" style="edgeStyle=orthogonalEdgeStyle;rounded=0;orthogonalLoop=1;jettySize=auto;html=1;" edge="1" parent="1" source="K1xCmPWtskgmcuf9Q6x5-7" target="K1xCmPWtskgmcuf9Q6x5-9">
          <mxGeometry relative="1" as="geometry">
            <Array as="points">
              <mxPoint x="80" y="400" />
              <mxPoint x="80" y="430" />
              <mxPoint x="100" y="430" />
            </Array>
          </mxGeometry>
        </mxCell>
        <mxCell id="K1xCmPWtskgmcuf9Q6x5-18" style="edgeStyle=orthogonalEdgeStyle;rounded=0;orthogonalLoop=1;jettySize=auto;html=1;entryX=0.444;entryY=0.017;entryDx=0;entryDy=0;entryPerimeter=0;" edge="1" parent="1" source="K1xCmPWtskgmcuf9Q6x5-7" target="K1xCmPWtskgmcuf9Q6x5-13">
          <mxGeometry relative="1" as="geometry">
            <Array as="points">
              <mxPoint x="223" y="400" />
            </Array>
          </mxGeometry>
        </mxCell>
        <mxCell id="K1xCmPWtskgmcuf9Q6x5-7" value="n &amp;lt; 0" style="rhombus;whiteSpace=wrap;html=1;fontStyle=1" vertex="1" parent="1">
          <mxGeometry x="92.5" y="370" width="125" height="60" as="geometry" />
        </mxCell>
        <mxCell id="K1xCmPWtskgmcuf9Q6x5-12" style="edgeStyle=orthogonalEdgeStyle;rounded=0;orthogonalLoop=1;jettySize=auto;html=1;" edge="1" parent="1" source="K1xCmPWtskgmcuf9Q6x5-9">
          <mxGeometry relative="1" as="geometry">
            <mxPoint x="150" y="160" as="targetPoint" />
            <Array as="points">
              <mxPoint x="100" y="550" />
              <mxPoint x="20" y="550" />
              <mxPoint x="20" y="160" />
              <mxPoint x="140" y="160" />
            </Array>
          </mxGeometry>
        </mxCell>
        <mxCell id="K1xCmPWtskgmcuf9Q6x5-9" value="&quot;Некорректный ввод. Повторите попытку&quot;" style="shape=parallelogram;perimeter=parallelogramPerimeter;whiteSpace=wrap;html=1;fixedSize=1;fontStyle=1" vertex="1" parent="1">
          <mxGeometry x="40" y="460" width="120" height="60" as="geometry" />
        </mxCell>
        <mxCell id="K1xCmPWtskgmcuf9Q6x5-26" style="edgeStyle=orthogonalEdgeStyle;rounded=0;orthogonalLoop=1;jettySize=auto;html=1;entryX=0.5;entryY=0;entryDx=0;entryDy=0;" edge="1" parent="1" source="K1xCmPWtskgmcuf9Q6x5-13" target="K1xCmPWtskgmcuf9Q6x5-24">
          <mxGeometry relative="1" as="geometry" />
        </mxCell>
        <mxCell id="K1xCmPWtskgmcuf9Q6x5-13" value="int matrix[100][100];" style="rounded=0;whiteSpace=wrap;html=1;fontStyle=1" vertex="1" parent="1">
          <mxGeometry x="170" y="470" width="120" height="40" as="geometry" />
        </mxCell>
        <mxCell id="K1xCmPWtskgmcuf9Q6x5-16" style="edgeStyle=orthogonalEdgeStyle;rounded=0;orthogonalLoop=1;jettySize=auto;html=1;entryX=0.5;entryY=0;entryDx=0;entryDy=0;" edge="1" parent="1" source="K1xCmPWtskgmcuf9Q6x5-15" target="K1xCmPWtskgmcuf9Q6x5-3">
          <mxGeometry relative="1" as="geometry" />
        </mxCell>
        <mxCell id="K1xCmPWtskgmcuf9Q6x5-15" value="int n;" style="rounded=0;whiteSpace=wrap;html=1;fontStyle=1" vertex="1" parent="1">
          <mxGeometry x="95" y="100" width="120" height="40" as="geometry" />
        </mxCell>
        <mxCell id="K1xCmPWtskgmcuf9Q6x5-19" value="&lt;b&gt;ДА&lt;/b&gt;" style="text;html=1;align=center;verticalAlign=middle;resizable=0;points=[];autosize=1;" vertex="1" parent="1">
          <mxGeometry x="62.5" y="370" width="30" height="20" as="geometry" />
        </mxCell>
        <mxCell id="K1xCmPWtskgmcuf9Q6x5-20" value="&lt;b&gt;НЕТ&lt;/b&gt;" style="text;html=1;align=center;verticalAlign=middle;resizable=0;points=[];autosize=1;" vertex="1" parent="1">
          <mxGeometry x="200" y="370" width="40" height="20" as="geometry" />
        </mxCell>
        <mxCell id="K1xCmPWtskgmcuf9Q6x5-27" style="edgeStyle=orthogonalEdgeStyle;rounded=0;orthogonalLoop=1;jettySize=auto;html=1;entryX=0.5;entryY=0;entryDx=0;entryDy=0;" edge="1" parent="1" source="K1xCmPWtskgmcuf9Q6x5-24" target="K1xCmPWtskgmcuf9Q6x5-25">
          <mxGeometry relative="1" as="geometry" />
        </mxCell>
        <mxCell id="K1xCmPWtskgmcuf9Q6x5-33" style="edgeStyle=orthogonalEdgeStyle;rounded=0;orthogonalLoop=1;jettySize=auto;html=1;entryX=0;entryY=0.5;entryDx=0;entryDy=0;" edge="1" parent="1" source="K1xCmPWtskgmcuf9Q6x5-24" target="K1xCmPWtskgmcuf9Q6x5-32">
          <mxGeometry relative="1" as="geometry" />
        </mxCell>
        <mxCell id="K1xCmPWtskgmcuf9Q6x5-24" value="&lt;b&gt;i = 0; i &amp;lt; n, i++&lt;/b&gt;" style="shape=hexagon;perimeter=hexagonPerimeter2;whiteSpace=wrap;html=1;fixedSize=1;" vertex="1" parent="1">
          <mxGeometry x="92.5" y="585" width="125" height="35" as="geometry" />
        </mxCell>
        <mxCell id="K1xCmPWtskgmcuf9Q6x5-29" style="edgeStyle=orthogonalEdgeStyle;rounded=0;orthogonalLoop=1;jettySize=auto;html=1;entryX=0.5;entryY=0;entryDx=0;entryDy=0;" edge="1" parent="1" source="K1xCmPWtskgmcuf9Q6x5-25" target="K1xCmPWtskgmcuf9Q6x5-28">
          <mxGeometry relative="1" as="geometry" />
        </mxCell>
        <mxCell id="K1xCmPWtskgmcuf9Q6x5-31" style="edgeStyle=orthogonalEdgeStyle;rounded=0;orthogonalLoop=1;jettySize=auto;html=1;entryX=0;entryY=0.5;entryDx=0;entryDy=0;" edge="1" parent="1" source="K1xCmPWtskgmcuf9Q6x5-25" target="K1xCmPWtskgmcuf9Q6x5-24">
          <mxGeometry relative="1" as="geometry">
            <Array as="points">
              <mxPoint x="240" y="668" />
              <mxPoint x="240" y="830" />
              <mxPoint x="40" y="830" />
              <mxPoint x="40" y="603" />
            </Array>
          </mxGeometry>
        </mxCell>
        <mxCell id="K1xCmPWtskgmcuf9Q6x5-25" value="&lt;b&gt;j = 0; j &amp;lt; n, j++&lt;/b&gt;" style="shape=hexagon;perimeter=hexagonPerimeter2;whiteSpace=wrap;html=1;fixedSize=1;" vertex="1" parent="1">
          <mxGeometry x="92.5" y="650" width="125" height="35" as="geometry" />
        </mxCell>
        <mxCell id="K1xCmPWtskgmcuf9Q6x5-30" style="edgeStyle=orthogonalEdgeStyle;rounded=0;orthogonalLoop=1;jettySize=auto;html=1;entryX=0;entryY=0.5;entryDx=0;entryDy=0;" edge="1" parent="1" source="K1xCmPWtskgmcuf9Q6x5-28" target="K1xCmPWtskgmcuf9Q6x5-25">
          <mxGeometry relative="1" as="geometry">
            <Array as="points">
              <mxPoint x="155" y="790" />
              <mxPoint x="58" y="790" />
              <mxPoint x="58" y="668" />
            </Array>
          </mxGeometry>
        </mxCell>
        <mxCell id="K1xCmPWtskgmcuf9Q6x5-28" value="matrix[i][j] = rand() % 101&amp;nbsp;" style="rounded=0;whiteSpace=wrap;html=1;fontStyle=1" vertex="1" parent="1">
          <mxGeometry x="77.5" y="720" width="155" height="40" as="geometry" />
        </mxCell>
        <mxCell id="K1xCmPWtskgmcuf9Q6x5-32" value="1" style="ellipse;whiteSpace=wrap;html=1;aspect=fixed;fontStyle=1" vertex="1" parent="1">
          <mxGeometry x="240" y="585" width="35" height="35" as="geometry" />
        </mxCell>
        <mxCell id="K1xCmPWtskgmcuf9Q6x5-36" style="edgeStyle=orthogonalEdgeStyle;rounded=0;orthogonalLoop=1;jettySize=auto;html=1;entryX=0.5;entryY=0;entryDx=0;entryDy=0;" edge="1" parent="1" source="K1xCmPWtskgmcuf9Q6x5-34" target="K1xCmPWtskgmcuf9Q6x5-35">
          <mxGeometry relative="1" as="geometry" />
        </mxCell>
        <mxCell id="K1xCmPWtskgmcuf9Q6x5-34" value="1" style="ellipse;whiteSpace=wrap;html=1;aspect=fixed;fontStyle=1" vertex="1" parent="1">
          <mxGeometry x="537.5" y="25" width="35" height="35" as="geometry" />
        </mxCell>
        <mxCell id="K1xCmPWtskgmcuf9Q6x5-77" style="edgeStyle=orthogonalEdgeStyle;rounded=0;orthogonalLoop=1;jettySize=auto;html=1;entryX=0.5;entryY=0;entryDx=0;entryDy=0;" edge="1" parent="1" source="K1xCmPWtskgmcuf9Q6x5-35" target="K1xCmPWtskgmcuf9Q6x5-48">
          <mxGeometry relative="1" as="geometry" />
        </mxCell>
        <mxCell id="K1xCmPWtskgmcuf9Q6x5-35" value="showMatrix(matrix, n);" style="shape=process;whiteSpace=wrap;html=1;backgroundOutline=1;fontStyle=1" vertex="1" parent="1">
          <mxGeometry x="465" y="80" width="180" height="40" as="geometry" />
        </mxCell>
        <mxCell id="K1xCmPWtskgmcuf9Q6x5-47" style="edgeStyle=orthogonalEdgeStyle;rounded=0;orthogonalLoop=1;jettySize=auto;html=1;entryX=0;entryY=0.5;entryDx=0;entryDy=0;" edge="1" parent="1" source="K1xCmPWtskgmcuf9Q6x5-48" target="K1xCmPWtskgmcuf9Q6x5-79">
          <mxGeometry relative="1" as="geometry">
            <mxPoint x="640" y="172.5" as="targetPoint" />
          </mxGeometry>
        </mxCell>
        <mxCell id="K1xCmPWtskgmcuf9Q6x5-75" style="edgeStyle=orthogonalEdgeStyle;rounded=0;orthogonalLoop=1;jettySize=auto;html=1;entryX=0.5;entryY=0;entryDx=0;entryDy=0;" edge="1" parent="1" source="K1xCmPWtskgmcuf9Q6x5-48" target="K1xCmPWtskgmcuf9Q6x5-53">
          <mxGeometry relative="1" as="geometry" />
        </mxCell>
        <mxCell id="K1xCmPWtskgmcuf9Q6x5-48" value="&lt;b&gt;i = 0; i &amp;lt; n, i++&lt;/b&gt;" style="shape=hexagon;perimeter=hexagonPerimeter2;whiteSpace=wrap;html=1;fixedSize=1;" vertex="1" parent="1">
          <mxGeometry x="492.5" y="155" width="125" height="35" as="geometry" />
        </mxCell>
        <mxCell id="K1xCmPWtskgmcuf9Q6x5-69" style="edgeStyle=orthogonalEdgeStyle;rounded=0;orthogonalLoop=1;jettySize=auto;html=1;entryX=0.5;entryY=0;entryDx=0;entryDy=0;" edge="1" parent="1" source="K1xCmPWtskgmcuf9Q6x5-51" target="K1xCmPWtskgmcuf9Q6x5-55">
          <mxGeometry relative="1" as="geometry">
            <mxPoint x="557.5" y="360" as="targetPoint" />
          </mxGeometry>
        </mxCell>
        <mxCell id="K1xCmPWtskgmcuf9Q6x5-72" style="edgeStyle=orthogonalEdgeStyle;rounded=0;orthogonalLoop=1;jettySize=auto;html=1;entryX=1;entryY=0.5;entryDx=0;entryDy=0;" edge="1" parent="1" source="K1xCmPWtskgmcuf9Q6x5-51" target="K1xCmPWtskgmcuf9Q6x5-70">
          <mxGeometry relative="1" as="geometry">
            <Array as="points">
              <mxPoint x="690" y="323" />
              <mxPoint x="690" y="750" />
            </Array>
          </mxGeometry>
        </mxCell>
        <mxCell id="K1xCmPWtskgmcuf9Q6x5-51" value="&lt;b&gt;j = 1; j &amp;lt; n, j++&lt;/b&gt;" style="shape=hexagon;perimeter=hexagonPerimeter2;whiteSpace=wrap;html=1;fixedSize=1;" vertex="1" parent="1">
          <mxGeometry x="495" y="305" width="125" height="35" as="geometry" />
        </mxCell>
        <mxCell id="K1xCmPWtskgmcuf9Q6x5-78" style="edgeStyle=orthogonalEdgeStyle;rounded=0;orthogonalLoop=1;jettySize=auto;html=1;entryX=0.5;entryY=0;entryDx=0;entryDy=0;" edge="1" parent="1" source="K1xCmPWtskgmcuf9Q6x5-53" target="K1xCmPWtskgmcuf9Q6x5-51">
          <mxGeometry relative="1" as="geometry">
            <Array as="points">
              <mxPoint x="558" y="290" />
            </Array>
          </mxGeometry>
        </mxCell>
        <mxCell id="K1xCmPWtskgmcuf9Q6x5-53" value="&lt;div&gt;int maxValue = matrix[i][0];&lt;/div&gt;&lt;div&gt;&lt;span&gt;		&lt;/span&gt;int maxPosition = 0;&lt;/div&gt;&lt;div&gt;&lt;span&gt;		&lt;/span&gt;int minValue = matrix[i][0];&lt;/div&gt;&lt;div&gt;&lt;span&gt;		&lt;/span&gt;int minPosition = 0;&lt;/div&gt;" style="rounded=0;whiteSpace=wrap;html=1;fontStyle=1" vertex="1" parent="1">
          <mxGeometry x="460" y="220" width="190" height="70" as="geometry" />
        </mxCell>
        <mxCell id="K1xCmPWtskgmcuf9Q6x5-57" style="edgeStyle=orthogonalEdgeStyle;rounded=0;orthogonalLoop=1;jettySize=auto;html=1;entryX=0.5;entryY=0;entryDx=0;entryDy=0;" edge="1" parent="1" source="K1xCmPWtskgmcuf9Q6x5-55" target="K1xCmPWtskgmcuf9Q6x5-56">
          <mxGeometry relative="1" as="geometry">
            <Array as="points">
              <mxPoint x="445" y="400" />
            </Array>
          </mxGeometry>
        </mxCell>
        <mxCell id="K1xCmPWtskgmcuf9Q6x5-60" style="edgeStyle=orthogonalEdgeStyle;rounded=0;orthogonalLoop=1;jettySize=auto;html=1;" edge="1" parent="1" source="K1xCmPWtskgmcuf9Q6x5-55" target="K1xCmPWtskgmcuf9Q6x5-58">
          <mxGeometry relative="1" as="geometry">
            <Array as="points">
              <mxPoint x="680" y="400" />
              <mxPoint x="680" y="490" />
              <mxPoint x="558" y="490" />
            </Array>
          </mxGeometry>
        </mxCell>
        <mxCell id="K1xCmPWtskgmcuf9Q6x5-55" value="maxValue &amp;lt; matrix[i][j]" style="rhombus;whiteSpace=wrap;html=1;fontStyle=1" vertex="1" parent="1">
          <mxGeometry x="475" y="370" width="165" height="60" as="geometry" />
        </mxCell>
        <mxCell id="K1xCmPWtskgmcuf9Q6x5-59" style="edgeStyle=orthogonalEdgeStyle;rounded=0;orthogonalLoop=1;jettySize=auto;html=1;entryX=0.5;entryY=0;entryDx=0;entryDy=0;" edge="1" parent="1" source="K1xCmPWtskgmcuf9Q6x5-56" target="K1xCmPWtskgmcuf9Q6x5-58">
          <mxGeometry relative="1" as="geometry">
            <Array as="points">
              <mxPoint x="445" y="490" />
              <mxPoint x="558" y="490" />
            </Array>
          </mxGeometry>
        </mxCell>
        <mxCell id="K1xCmPWtskgmcuf9Q6x5-56" value="&lt;div&gt;maxValue = matrix[i][j];&lt;/div&gt;&lt;div&gt;&lt;span&gt;				&lt;/span&gt;maxPosition = j;&lt;/div&gt;" style="rounded=0;whiteSpace=wrap;html=1;fontStyle=1" vertex="1" parent="1">
          <mxGeometry x="370" y="440" width="150" height="40" as="geometry" />
        </mxCell>
        <mxCell id="K1xCmPWtskgmcuf9Q6x5-62" style="edgeStyle=orthogonalEdgeStyle;rounded=0;orthogonalLoop=1;jettySize=auto;html=1;entryX=0.5;entryY=0;entryDx=0;entryDy=0;" edge="1" parent="1" source="K1xCmPWtskgmcuf9Q6x5-58" target="K1xCmPWtskgmcuf9Q6x5-61">
          <mxGeometry relative="1" as="geometry">
            <Array as="points">
              <mxPoint x="445" y="540" />
            </Array>
          </mxGeometry>
        </mxCell>
        <mxCell id="K1xCmPWtskgmcuf9Q6x5-63" style="edgeStyle=orthogonalEdgeStyle;rounded=0;orthogonalLoop=1;jettySize=auto;html=1;entryX=0;entryY=0.5;entryDx=0;entryDy=0;" edge="1" parent="1" source="K1xCmPWtskgmcuf9Q6x5-58" target="K1xCmPWtskgmcuf9Q6x5-51">
          <mxGeometry relative="1" as="geometry">
            <Array as="points">
              <mxPoint x="680" y="540" />
              <mxPoint x="680" y="700" />
              <mxPoint x="360" y="700" />
              <mxPoint x="360" y="323" />
            </Array>
          </mxGeometry>
        </mxCell>
        <mxCell id="K1xCmPWtskgmcuf9Q6x5-58" value="minValue &amp;gt; matrix[i][j]" style="rhombus;whiteSpace=wrap;html=1;fontStyle=1" vertex="1" parent="1">
          <mxGeometry x="475" y="510" width="165" height="60" as="geometry" />
        </mxCell>
        <mxCell id="K1xCmPWtskgmcuf9Q6x5-64" style="edgeStyle=orthogonalEdgeStyle;rounded=0;orthogonalLoop=1;jettySize=auto;html=1;entryX=0;entryY=0.5;entryDx=0;entryDy=0;" edge="1" parent="1" source="K1xCmPWtskgmcuf9Q6x5-61" target="K1xCmPWtskgmcuf9Q6x5-51">
          <mxGeometry relative="1" as="geometry">
            <Array as="points">
              <mxPoint x="360" y="590" />
              <mxPoint x="360" y="323" />
            </Array>
          </mxGeometry>
        </mxCell>
        <mxCell id="K1xCmPWtskgmcuf9Q6x5-61" value="&lt;div&gt;maxValue = matrix[i][j];&lt;/div&gt;&lt;div&gt;&lt;span&gt;				&lt;/span&gt;maxPosition = j;&lt;/div&gt;" style="rounded=0;whiteSpace=wrap;html=1;fontStyle=1" vertex="1" parent="1">
          <mxGeometry x="370" y="570" width="150" height="40" as="geometry" />
        </mxCell>
        <mxCell id="K1xCmPWtskgmcuf9Q6x5-65" value="&lt;b&gt;НЕТ&lt;/b&gt;" style="text;html=1;align=center;verticalAlign=middle;resizable=0;points=[];autosize=1;" vertex="1" parent="1">
          <mxGeometry x="640" y="370" width="40" height="20" as="geometry" />
        </mxCell>
        <mxCell id="K1xCmPWtskgmcuf9Q6x5-66" value="&lt;b&gt;НЕТ&lt;/b&gt;" style="text;html=1;align=center;verticalAlign=middle;resizable=0;points=[];autosize=1;" vertex="1" parent="1">
          <mxGeometry x="640" y="510" width="40" height="20" as="geometry" />
        </mxCell>
        <mxCell id="K1xCmPWtskgmcuf9Q6x5-67" value="&lt;b&gt;ДА&lt;/b&gt;" style="text;html=1;align=center;verticalAlign=middle;resizable=0;points=[];autosize=1;" vertex="1" parent="1">
          <mxGeometry x="445" y="370" width="30" height="20" as="geometry" />
        </mxCell>
        <mxCell id="K1xCmPWtskgmcuf9Q6x5-68" value="&lt;b&gt;ДА&lt;/b&gt;" style="text;html=1;align=center;verticalAlign=middle;resizable=0;points=[];autosize=1;" vertex="1" parent="1">
          <mxGeometry x="445" y="510" width="30" height="20" as="geometry" />
        </mxCell>
        <mxCell id="K1xCmPWtskgmcuf9Q6x5-73" style="edgeStyle=orthogonalEdgeStyle;rounded=0;orthogonalLoop=1;jettySize=auto;html=1;entryX=0;entryY=0.5;entryDx=0;entryDy=0;" edge="1" parent="1" source="K1xCmPWtskgmcuf9Q6x5-70" target="K1xCmPWtskgmcuf9Q6x5-48">
          <mxGeometry relative="1" as="geometry">
            <Array as="points">
              <mxPoint x="350" y="750" />
              <mxPoint x="350" y="173" />
            </Array>
          </mxGeometry>
        </mxCell>
        <mxCell id="K1xCmPWtskgmcuf9Q6x5-70" value="&lt;div&gt;matrix[i][minPosition] = maxValue;&lt;/div&gt;&lt;div&gt;&lt;span&gt;		&lt;/span&gt;matrix[i][maxPosition] = minValue;&lt;/div&gt;" style="rounded=0;whiteSpace=wrap;html=1;fontStyle=1" vertex="1" parent="1">
          <mxGeometry x="420" y="730" width="207.5" height="40" as="geometry" />
        </mxCell>
        <mxCell id="K1xCmPWtskgmcuf9Q6x5-79" value="2" style="ellipse;whiteSpace=wrap;html=1;aspect=fixed;fontStyle=1" vertex="1" parent="1">
          <mxGeometry x="645" y="155" width="35" height="35" as="geometry" />
        </mxCell>
        <mxCell id="K1xCmPWtskgmcuf9Q6x5-83" style="edgeStyle=orthogonalEdgeStyle;rounded=0;orthogonalLoop=1;jettySize=auto;html=1;entryX=0.5;entryY=0;entryDx=0;entryDy=0;" edge="1" parent="1" source="K1xCmPWtskgmcuf9Q6x5-80" target="K1xCmPWtskgmcuf9Q6x5-81">
          <mxGeometry relative="1" as="geometry" />
        </mxCell>
        <mxCell id="K1xCmPWtskgmcuf9Q6x5-80" value="2" style="ellipse;whiteSpace=wrap;html=1;aspect=fixed;fontStyle=1" vertex="1" parent="1">
          <mxGeometry x="1030" y="25" width="35" height="35" as="geometry" />
        </mxCell>
        <mxCell id="K1xCmPWtskgmcuf9Q6x5-85" style="edgeStyle=orthogonalEdgeStyle;rounded=0;orthogonalLoop=1;jettySize=auto;html=1;entryX=0.5;entryY=0;entryDx=0;entryDy=0;" edge="1" parent="1" source="K1xCmPWtskgmcuf9Q6x5-81" target="K1xCmPWtskgmcuf9Q6x5-84">
          <mxGeometry relative="1" as="geometry" />
        </mxCell>
        <mxCell id="K1xCmPWtskgmcuf9Q6x5-81" value="&quot;Преобразованная матрица:\n&quot;" style="shape=parallelogram;perimeter=parallelogramPerimeter;whiteSpace=wrap;html=1;fixedSize=1;fontStyle=1" vertex="1" parent="1">
          <mxGeometry x="976.25" y="80" width="142.5" height="60" as="geometry" />
        </mxCell>
        <mxCell id="K1xCmPWtskgmcuf9Q6x5-86" style="edgeStyle=orthogonalEdgeStyle;rounded=0;orthogonalLoop=1;jettySize=auto;html=1;entryX=0.5;entryY=0;entryDx=0;entryDy=0;" edge="1" parent="1" source="K1xCmPWtskgmcuf9Q6x5-84" target="K1xCmPWtskgmcuf9Q6x5-2">
          <mxGeometry relative="1" as="geometry" />
        </mxCell>
        <mxCell id="K1xCmPWtskgmcuf9Q6x5-84" value="showMatrix(matrix, n);" style="shape=process;whiteSpace=wrap;html=1;backgroundOutline=1;fontStyle=1" vertex="1" parent="1">
          <mxGeometry x="957.5" y="170" width="180" height="40" as="geometry" />
        </mxCell>
        <mxCell id="K1xCmPWtskgmcuf9Q6x5-98" style="edgeStyle=orthogonalEdgeStyle;rounded=0;orthogonalLoop=1;jettySize=auto;html=1;entryX=0.5;entryY=0;entryDx=0;entryDy=0;" edge="1" parent="1" source="K1xCmPWtskgmcuf9Q6x5-87" target="K1xCmPWtskgmcuf9Q6x5-91">
          <mxGeometry relative="1" as="geometry" />
        </mxCell>
        <mxCell id="K1xCmPWtskgmcuf9Q6x5-87" value="&lt;b&gt;Начало&lt;/b&gt;" style="ellipse;whiteSpace=wrap;html=1;" vertex="1" parent="1">
          <mxGeometry x="999.98" y="320" width="90" height="40" as="geometry" />
        </mxCell>
        <mxCell id="K1xCmPWtskgmcuf9Q6x5-88" value="&lt;b&gt;Конец&lt;/b&gt;" style="ellipse;whiteSpace=wrap;html=1;" vertex="1" parent="1">
          <mxGeometry x="1130" y="387.5" width="90" height="40" as="geometry" />
        </mxCell>
        <mxCell id="K1xCmPWtskgmcuf9Q6x5-89" style="edgeStyle=orthogonalEdgeStyle;rounded=0;orthogonalLoop=1;jettySize=auto;html=1;entryX=0.5;entryY=0;entryDx=0;entryDy=0;" edge="1" parent="1" source="K1xCmPWtskgmcuf9Q6x5-91" target="K1xCmPWtskgmcuf9Q6x5-94">
          <mxGeometry relative="1" as="geometry" />
        </mxCell>
        <mxCell id="K1xCmPWtskgmcuf9Q6x5-90" style="edgeStyle=orthogonalEdgeStyle;rounded=0;orthogonalLoop=1;jettySize=auto;html=1;entryX=0;entryY=0.5;entryDx=0;entryDy=0;" edge="1" parent="1" source="K1xCmPWtskgmcuf9Q6x5-91">
          <mxGeometry relative="1" as="geometry">
            <mxPoint x="1129.980000000005" y="407.5" as="targetPoint" />
          </mxGeometry>
        </mxCell>
        <mxCell id="K1xCmPWtskgmcuf9Q6x5-91" value="&lt;b&gt;i = 0; i &amp;lt; n, i++&lt;/b&gt;" style="shape=hexagon;perimeter=hexagonPerimeter2;whiteSpace=wrap;html=1;fixedSize=1;" vertex="1" parent="1">
          <mxGeometry x="982.48" y="390" width="125" height="35" as="geometry" />
        </mxCell>
        <mxCell id="K1xCmPWtskgmcuf9Q6x5-100" style="edgeStyle=orthogonalEdgeStyle;rounded=0;orthogonalLoop=1;jettySize=auto;html=1;" edge="1" parent="1" source="K1xCmPWtskgmcuf9Q6x5-94">
          <mxGeometry relative="1" as="geometry">
            <mxPoint x="1044.98" y="520" as="targetPoint" />
          </mxGeometry>
        </mxCell>
        <mxCell id="K1xCmPWtskgmcuf9Q6x5-104" style="edgeStyle=orthogonalEdgeStyle;rounded=0;orthogonalLoop=1;jettySize=auto;html=1;" edge="1" parent="1" source="K1xCmPWtskgmcuf9Q6x5-94" target="K1xCmPWtskgmcuf9Q6x5-101">
          <mxGeometry relative="1" as="geometry">
            <Array as="points">
              <mxPoint x="1120" y="472" />
              <mxPoint x="1120" y="580" />
              <mxPoint x="1043" y="580" />
            </Array>
          </mxGeometry>
        </mxCell>
        <mxCell id="K1xCmPWtskgmcuf9Q6x5-94" value="&lt;b&gt;j = 0; j &amp;lt; n, j++&lt;/b&gt;" style="shape=hexagon;perimeter=hexagonPerimeter2;whiteSpace=wrap;html=1;fixedSize=1;" vertex="1" parent="1">
          <mxGeometry x="982.48" y="455" width="125" height="35" as="geometry" />
        </mxCell>
        <mxCell id="K1xCmPWtskgmcuf9Q6x5-102" style="edgeStyle=orthogonalEdgeStyle;rounded=0;orthogonalLoop=1;jettySize=auto;html=1;entryX=0;entryY=0.5;entryDx=0;entryDy=0;" edge="1" parent="1" source="K1xCmPWtskgmcuf9Q6x5-99" target="K1xCmPWtskgmcuf9Q6x5-94">
          <mxGeometry relative="1" as="geometry">
            <Array as="points">
              <mxPoint x="1043" y="570" />
              <mxPoint x="963" y="570" />
              <mxPoint x="963" y="472" />
            </Array>
          </mxGeometry>
        </mxCell>
        <mxCell id="K1xCmPWtskgmcuf9Q6x5-99" value="matr[i][j] &amp;lt;&amp;lt;&quot;\t&quot;" style="shape=parallelogram;perimeter=parallelogramPerimeter;whiteSpace=wrap;html=1;fixedSize=1;fontStyle=1" vertex="1" parent="1">
          <mxGeometry x="982.48" y="525" width="120" height="35" as="geometry" />
        </mxCell>
        <mxCell id="K1xCmPWtskgmcuf9Q6x5-105" style="edgeStyle=orthogonalEdgeStyle;rounded=0;orthogonalLoop=1;jettySize=auto;html=1;entryX=0;entryY=0.5;entryDx=0;entryDy=0;" edge="1" parent="1" source="K1xCmPWtskgmcuf9Q6x5-101" target="K1xCmPWtskgmcuf9Q6x5-91">
          <mxGeometry relative="1" as="geometry">
            <Array as="points">
              <mxPoint x="1043" y="650" />
              <mxPoint x="940" y="650" />
              <mxPoint x="940" y="408" />
            </Array>
          </mxGeometry>
        </mxCell>
        <mxCell id="K1xCmPWtskgmcuf9Q6x5-101" value="&quot;\n&quot;" style="shape=parallelogram;perimeter=parallelogramPerimeter;whiteSpace=wrap;html=1;fixedSize=1;fontStyle=1" vertex="1" parent="1">
          <mxGeometry x="982.48" y="600" width="120" height="35" as="geometry" />
        </mxCell>
      </root>
    </mxGraphModel>
  </diagram>
</mxfile>
